<svg data-v-0dd9719b="" version="1.0" xmlns="http://www.w3.org/2000/svg" xmlns:xlink="http://www.w3.org/1999/xlink" width="100%" height="100%" viewBox="0 0 340.000000 250.000000" preserveAspectRatio="xMidYMid meet" color-interpolation-filters="sRGB" style="margin: auto;"> <rect data-v-0dd9719b="" x="0" y="0" width="100%" height="100%" fill="#fff" fill-opacity="1" class="background"></rect> <rect data-v-0dd9719b="" x="0" y="0" width="100%" height="100%" fill="url(#watermark)" fill-opacity="1" class="watermarklayer"></rect> <g data-v-0dd9719b="" fill="#333" class="icon-text-wrapper icon-svg-group iconsvg" transform="translate(48.95500183105469,95.00180053710938)"><g class="iconsvg-imagesvg" transform="translate(0,0)"><g><rect fill="#333" fill-opacity="0" stroke-width="2" x="0" y="0" width="60" height="59.996400215987045" class="image-rect"></rect> <svg x="0" y="0" width="60" height="59.996400215987045" filtersec="colorsb8402516028" class="image-svg-svg primary" style="overflow: visible;"><svg xmlns="http://www.w3.org/2000/svg" viewBox="-0.005915164947509766 -0.0032501220703125 100.00916290283203 100.00305938720703"><path d="M97.79 58.53L87.06 44.81a58.94 58.94 0 0 1-5-7.79L72.32 42l-9.14 27.73 4.92 9.75a60.75 60.75 0 0 1 8.64-3.3l16.78-4.67c6.48-1.81 8.48-7.65 4.27-12.98z" fill="#00d495"></path><path d="M30.27 63.18l-9.76 4.92a58.55 58.55 0 0 1 3.31 8.64l4.67 16.78c1.81 6.52 7.65 8.45 13 4.27l13.7-10.73a58.94 58.94 0 0 1 7.79-5l-4.93-9.75z" fill="#7fe000"></path><path d="M36.82 30.27l-4.93-9.76a57.37 57.37 0 0 1-8.63 3.31L6.48 28.49C0 30.3-2 36.14 2.2 41.47l10.74 13.72a58.94 58.94 0 0 1 5 7.79l9.75-4.93z" fill="#00a2ff"></path><path d="M69.73 36.82l9.75-4.92a60 60 0 0 1-3.3-8.64L71.51 6.48C69.7 0 63.85-2 58.53 2.21L44.81 12.94a58.94 58.94 0 0 1-7.79 5L42 27.68z" fill="#00c0d9"></path></svg></svg> <!----></g></g> <g transform="translate(67,2.8119468688964844)"><g data-gra="path-name" fill-rule="" class="tp-name iconsvg-namesvg" transform="translate(0,0)"><g transform="scale(1)"><g><path d="M38.67 2.55L38.67 2.55Q37.53 2.55 36.17 1.84L36.17 1.84Q26.34-3.86 22.38-14.62L22.38-14.62Q19.53-4.48 8.56 1.76L8.56 1.76Q7.07 2.5 5.88 2.5L5.88 2.5Q4.39 2.5 3.34 1.36L3.34 1.36Q3.03 1.01 3.03 0.61L3.03 0.61Q3.03-0.31 5-1.27L5-1.27Q15.1-7.29 18.04-20.72L18.04-20.72 5.4-20.72Q2.5-20.72 2.5-22.56L2.5-22.56Q2.5-24.4 5.4-24.4L5.4-24.4 18.65-24.4Q19.14-28.13 19.22-34.81L19.22-34.81Q19.22-36.52 22.17-36.52L22.17-36.52Q25.15-36.52 25.15-34.85L25.15-34.85Q25.15-29.36 24.54-24.4L24.54-24.4 39.2-24.4Q42.09-24.4 42.09-22.56L42.09-22.56Q42.09-20.72 39.2-20.72L39.2-20.72 26.07-20.72Q30.59-6.85 39.99-1.4L39.99-1.4Q41.83-0.53 41.83 0.22L41.83 0.22Q41.83 0.53 41.26 1.19L41.26 1.19Q40.2 2.55 38.67 2.55ZM74.53-2.37L74.53-2.37Q71.63-2.37 71.63-4.17L71.63-4.17 71.63-9.57 61.4-9.57Q58.68-9.57 58.68-11.24L58.68-11.24Q58.68-12.9 61.4-12.9L61.4-12.9 71.63-12.9 71.63-18.43Q65.71-18.43 64.98-18.37 64.26-18.3 63.64-18.3L63.64-18.3Q62.81-18.3 62.24-18.48L62.24-18.48Q60.44-19.01 60.44-20.37L60.44-20.37Q60.44-21.02 61.45-22.52L61.45-22.52Q63.03-24.97 64.61-29.14L64.61-29.14 61.62-29.14Q59.08-29.14 59.08-30.64L59.08-30.64Q59.08-32.13 61.62-32.13L61.62-32.13 65.84-32.13 66.58-34.37Q67.11-36.21 69.04-36.21L69.04-36.21Q69.74-36.21 70.58-35.99L70.58-35.99Q72.38-35.51 72.38-34.41L72.38-34.41Q72.38-33.88 71.63-32.13L71.63-32.13 84.05-32.13Q86.6-32.13 86.6-30.64L86.6-30.64Q86.6-29.14 84.05-29.14L84.05-29.14 70.36-29.14Q68.91-25.68 66.67-21.68L66.67-21.68 71.63-21.68 71.63-24.84Q71.63-26.64 74.53-26.64L74.53-26.64Q77.38-26.64 77.38-24.84L77.38-24.84 77.38-21.68 82.6-21.68Q85.28-21.68 85.28-20.06L85.28-20.06Q85.28-18.43 82.6-18.43L82.6-18.43 77.38-18.43 77.38-12.9 84.49-12.9Q87.21-12.9 87.21-11.24L87.21-11.24Q87.21-9.57 84.49-9.57L84.49-9.57 77.38-9.57 77.38-4.17Q77.38-2.37 74.53-2.37ZM71.54 2.77L71.54 2.77Q66.89 2.77 64.08 2.24L64.08 2.24Q60.75 1.67 58.24 0.13L58.24 0.13 56.31-1.23Q54.86-2.33 54.78-2.33L54.78-2.33Q54.43-2.33 52.76-0.09L52.76-0.09Q51.35 2.02 49.25 2.02L49.25 2.02Q47.89 2.02 47.01 0.79L47.01 0.79Q46.7 0.4 46.7-0.04L46.7-0.04Q46.7-0.75 47.49-1.58L47.49-1.58Q49.99-4.17 52.06-5.05L52.06-5.05 52.06-17.16Q52.06-18.48 51.79-18.48L51.79-18.48 49.51-18.48Q46.74-18.48 46.74-20.23L46.74-20.23Q46.74-21.95 49.51-21.95L49.51-21.95 54.69-21.95Q56.31-21.95 56.99-21.27 57.67-20.59 57.67-20.01L57.67-20.01 57.67-4.74 58.99-3.86Q60.04-3.07 60.75-2.63L60.75-2.63Q63.64-0.75 71.68-0.75L71.68-0.75Q78.39-0.75 84.93-1.45L84.93-1.45Q85.68-1.54 86.25-1.54L86.25-1.54Q87.43-1.54 87.76-1.16 88.09-0.79 88.09-0.22L88.09-0.22Q88.09 0.04 88 0.4L88 0.4Q87.78 1.32 87.48 1.58L87.48 1.58Q86.42 2.77 71.54 2.77ZM54.6-26.64L54.6-26.64Q54.47-26.64 53.77-26.69 53.07-26.73 52.23-27.87L52.23-27.87Q51-29.58 48.46-32.3L48.46-32.3Q48.06-32.66 48.06-33.05L48.06-33.05Q48.06-33.49 48.72-33.97L48.72-33.97Q49.86-34.81 50.91-34.81L50.91-34.81Q52.1-34.81 53.15-33.75L53.15-33.75Q55.74-31.21 57.54-29.06L57.54-29.06Q57.89-28.66 57.89-28.57L57.89-28.57Q57.81-28.22 56.97-27.56L56.97-27.56Q55.74-26.64 54.6-26.64ZM97.26 1.84L97.26 1.84Q96.21 1.84 94.85 0.92L94.85 0.92Q93.93 0.31 93.93-0.35L93.93-0.35Q93.93-0.57 94.06-0.83L94.06-0.83Q95.6-3.56 96.69-5.66L96.69-5.66 97.04-6.36Q98.71-9.57 99.46-11.21 100.2-12.86 101.52-12.86L101.52-12.86Q102.57-12.86 103.98-11.72L103.98-11.72Q104.64-11.15 104.64-10.58L104.64-10.58Q104.64-10.36 104.55-10.18L104.55-10.18Q101.96-4.43 99.46 0.26L99.46 0.26Q98.62 1.84 97.26 1.84ZM127.15 1.05L127.15 1.05 109.38 1.05Q107.49 1.05 106.61 0.18 105.74-0.7 105.74-1.54L105.74-1.54 105.74-26.2Q105.74-27.04 106.61-27.92 107.49-28.79 109.38-28.79L109.38-28.79 112.93-28.79Q113.68-31.65 114.16-34.24L114.16-34.24Q114.43-36.12 116.93-36.12L116.93-36.12Q120.18-36.12 120.18-34.41L120.18-34.41Q120.18-34.1 120.09-33.8L120.09-33.8Q118.9-29.76 118.42-28.79L118.42-28.79 127.15-28.79Q129.04-28.79 129.92-27.92 130.8-27.04 130.8-26.2L130.8-26.2 130.8-1.54Q130.8-0.7 129.92 0.18 129.04 1.05 127.15 1.05ZM111.53-2.37L124.83-2.37Q125.09-2.37 125.09-3.69L125.09-3.69 125.09-12.55 111.27-12.55 111.27-3.69Q111.27-2.37 111.53-2.37L111.53-2.37ZM111.27-15.8L125.09-15.8 125.09-24.1Q125.09-25.41 124.83-25.41L124.83-25.41 111.53-25.41Q111.27-25.41 111.27-24.1L111.27-24.1 111.27-15.8ZM99.81-17.64L99.81-17.64Q98.76-17.64 97.75-18.43L97.75-18.43Q97.04-18.96 95.99-19.62L95.99-19.62 94.24-20.59Q92.7-21.38 92.7-21.95L92.7-21.95Q92.7-22.21 92.92-22.52L92.92-22.52Q93.8-23.75 95.16-23.75L95.16-23.75Q95.9-23.75 96.83-23.35L96.83-23.35Q99.77-21.99 102.09-20.45L102.09-20.45Q102.71-19.97 102.71-19.75L102.71-19.75Q102.71-19.58 102.31-19.05L102.31-19.05Q101.35-17.64 99.81-17.64ZM102.36-29.45L102.36-29.45Q101.26-29.45 100.25-30.33L100.25-30.33Q98.89-31.29 96.04-32.87L96.04-32.87Q95.07-33.36 95.07-33.93L95.07-33.93Q95.07-34.19 95.29-34.46L95.29-34.46Q96.17-35.68 97.53-35.68L97.53-35.68Q98.32-35.68 99.24-35.29L99.24-35.29Q102.27-33.93 104.64-32.26L104.64-32.26Q105.3-31.78 105.34-31.6L105.34-31.6Q105.34-31.38 104.9-30.81L104.9-30.81Q103.98-29.45 102.36-29.45ZM173.94 1.89L173.94 1.89 140.8 1.89Q138.26 1.89 138.26 0.4L138.26 0.4Q138.26-1.14 140.8-1.14L140.8-1.14 154.24-1.14 154.24-11.63 142.91-11.63Q140.37-11.63 140.37-13.12L140.37-13.12Q140.37-14.62 142.91-14.62L142.91-14.62 154.24-14.62 154.24-20.37 148.66-20.37Q147.08-20.37 146.4-21.05 145.72-21.73 145.72-22.25L145.72-22.25 145.72-21.68Q141.81-18.83 140.06-18.83L140.06-18.83Q138.65-18.83 137.64-20.15L137.64-20.15Q137.43-20.41 137.43-20.72L137.43-20.72Q137.43-21.42 138.74-22.17L138.74-22.17Q143-24.67 146.86-28.11 150.72-31.56 153.14-34.98L153.14-34.98Q153.49-35.6 154.54-36.12 155.6-36.65 156.87-36.65L156.87-36.65Q159.77-36.65 161.04-34.94L161.04-34.94Q164.07-31.16 168.15-27.87L168.15-27.87Q171.97-24.71 176.09-22.56L176.09-22.56Q177.59-21.86 177.59-21.42L177.59-21.42Q177.59-21.07 177.1-20.45L177.1-20.45Q176.09-19.01 174.65-19.01L174.65-19.01Q173.64-19.01 172.41-19.71L172.41-19.71Q169.95-21.11 168.9-21.9L168.9-21.9 168.9-21.2Q168.9-20.37 167.01-20.37L167.01-20.37 160.07-20.37 160.07-14.62 171.66-14.62Q174.21-14.62 174.21-13.12L174.21-13.12Q174.21-11.63 171.66-11.63L171.66-11.63 160.07-11.63 160.07-1.14 173.94-1.14Q176.49-1.14 176.49 0.4L176.49 0.4Q176.49 1.89 173.94 1.89ZM164.95-2.11L164.95-2.11Q164.16-2.11 163.1-2.57 162.05-3.03 162.05-3.51L162.05-3.51Q162.05-3.69 162.14-3.82L162.14-3.82Q163.54-5.93 164.86-8.56L164.86-8.56Q165.6-10.14 167.14-10.14L167.14-10.14Q167.93-10.14 168.94-9.74L168.94-9.74Q170.26-9.22 170.26-8.51L170.26-8.51Q170.26-8.21 170.08-7.9L170.08-7.9Q168.19-4.96 166.57-2.85L166.57-2.85Q165.95-2.11 164.95-2.11ZM148.71-2.33L148.71-2.33Q147.17-2.33 146.64-3.91L146.64-3.91Q146.12-5.22 145.76-5.75L145.76-5.75Q145.68-6.23 144.45-8.25L144.45-8.25Q144.32-8.47 144.32-8.65L144.32-8.65Q144.32-9.26 145.59-9.79L145.59-9.79Q146.47-10.1 147.17-10.1L147.17-10.1Q149.5-10.1 152-4.13L152-4.13 152.04-3.91Q152.04-3.47 150.81-2.9 149.58-2.33 148.71-2.33ZM148.09-23.44L165.56-23.44Q166-23.44 166-23.66L166-23.66Q166-24.01 164.86-24.93L164.86-24.93Q159.41-29.23 157.22-32.17L157.22-32.17Q154.98-28.97 148.09-23.44L148.09-23.44Z" transform="translate(-2.5, 36.650001525878906)"></path></g> <!----> <!----> <!----> <!----> <!----> <!----> <!----></g></g> <g data-gra="path-slogan" fill-rule="" class="tp-slogan iconsvg-slogansvg" fill="#333" transform="translate(5,45.42000198364258)"><rect x="0" height="1" y="3.9750003814697266" width="39.584999084472656"></rect> <rect height="1" y="3.9750003814697266" width="39.584999084472656" x="125.50499725341797"></rect> <g transform="translate(42.584999084472656,0)"><g transform="scale(1)"><path d="M4.41 0L0.94 0L0.94-8.58L4.45-8.58Q7.92-8.39 8.06-4.41L8.06-4.41Q7.88-0.09 4.41 0L4.41 0ZM4.27-7.64L2.11-7.64L2.11-0.98L4.36-0.98Q6.80-1.13 6.89-4.31L6.89-4.31Q6.84-7.55 4.27-7.64L4.27-7.64ZM15.19 0L14.34-2.48L10.88-2.48L9.98 0L8.81 0L12.05-8.58L13.36-8.58L16.45 0L15.19 0ZM12.61-7.31L11.25-3.52L13.92-3.52L12.66-7.31L12.61-7.31ZM17.48-8.58L18.66-8.58L18.66-1.03L23.02-1.03L23.02 0L17.48 0L17.48-8.58ZM24.33-8.58L25.50-8.58L25.50 0L24.33 0L24.33-8.58ZM33.14 0L32.30-2.48L28.83-2.48L27.94 0L26.77 0L30-8.58L31.31-8.58L34.41 0L33.14 0ZM30.56-7.31L29.20-3.52L31.88-3.52L30.61-7.31L30.56-7.31ZM36.84-8.58L41.16-1.64L41.16-8.58L42.28-8.58L42.28 0L40.97 0L36.61-6.94L36.56-6.94L36.56 0L35.44 0L35.44-8.58L36.84-8.58ZM50.63-7.64L48.56-7.64L48.56-4.97L50.63-4.97Q52.45-4.92 52.41-6.38L52.41-6.38Q52.41-7.64 50.63-7.64L50.63-7.64ZM51.09 0L47.39 0L47.39-8.58L51.19-8.58Q53.48-8.48 53.58-6.42L53.58-6.42Q53.58-5.16 52.45-4.64L52.45-4.64Q54.05-4.08 54.05-2.53L54.05-2.53Q53.91-0.09 51.09 0L51.09 0ZM50.81-3.98L48.56-3.98L48.56-0.98L51.05-0.98Q52.83-1.03 52.88-2.53L52.88-2.53Q52.88-3.98 50.81-3.98L50.81-3.98ZM62.16-4.27L62.16-4.27Q61.97-7.64 59.16-7.83L59.16-7.83Q56.30-7.69 56.16-4.27L56.16-4.27Q56.30-0.94 59.16-0.80L59.16-0.80Q61.97-0.98 62.16-4.27ZM63.33-4.27L63.33-4.27Q63.05 0 59.16 0.14L59.16 0.14Q55.22 0 54.94-4.27L54.94-4.27Q55.17-8.72 59.16-8.81L59.16-8.81Q63.05-8.67 63.33-4.27ZM63.98-1.92L63.98-2.77L65.06-2.77L65.06-2.16Q65.06-0.75 66.38-0.75L66.38-0.75Q67.73-0.75 67.73-2.25L67.73-2.25L67.73-8.58L68.91-8.58L68.91-2.30Q68.86 0.09 66.42 0.14L66.42 0.14Q64.13 0.09 63.98-1.92L63.98-1.92ZM70.88-8.58L72.05-8.58L72.05 0L70.88 0L70.88-8.58ZM75.42-8.58L79.73-1.64L79.73-8.58L80.86-8.58L80.86 0L79.55 0L75.19-6.94L75.14-6.94L75.14 0L74.02 0L74.02-8.58L75.42-8.58Z" transform="translate(-0.9375, 8.8125)"></path></g></g></g></g></g><defs v-gra="od"></defs></svg>